<?xml version="1.0" encoding="UTF-8"?>
<svg xmlns="http://www.w3.org/2000/svg" xmlns:xlink="http://www.w3.org/1999/xlink" width="36pt" height="36pt" viewBox="0 0 36 36" version="1.1">
<g id="surface6050178">
<path style=" stroke:none;fill-rule:nonzero;fill:rgb(100%,100%,100%);fill-opacity:1;" d="M 3.601562 8.398438 C 3.167969 8.394531 2.765625 8.621094 2.546875 8.996094 C 2.328125 9.367188 2.328125 9.832031 2.546875 10.203125 C 2.765625 10.578125 3.167969 10.804688 3.601562 10.800781 L 32.398438 10.800781 C 32.832031 10.804688 33.234375 10.578125 33.453125 10.203125 C 33.671875 9.832031 33.671875 9.367188 33.453125 8.996094 C 33.234375 8.621094 32.832031 8.394531 32.398438 8.398438 Z M 3.601562 16.800781 C 3.167969 16.792969 2.765625 17.019531 2.546875 17.394531 C 2.328125 17.769531 2.328125 18.230469 2.546875 18.605469 C 2.765625 18.980469 3.167969 19.207031 3.601562 19.199219 L 32.398438 19.199219 C 32.832031 19.207031 33.234375 18.980469 33.453125 18.605469 C 33.671875 18.230469 33.671875 17.769531 33.453125 17.394531 C 33.234375 17.019531 32.832031 16.792969 32.398438 16.800781 Z M 3.601562 25.199219 C 3.167969 25.195312 2.765625 25.421875 2.546875 25.796875 C 2.328125 26.167969 2.328125 26.632812 2.546875 27.003906 C 2.765625 27.378906 3.167969 27.605469 3.601562 27.601562 L 32.398438 27.601562 C 32.832031 27.605469 33.234375 27.378906 33.453125 27.003906 C 33.671875 26.632812 33.671875 26.167969 33.453125 25.796875 C 33.234375 25.421875 32.832031 25.195312 32.398438 25.199219 Z M 3.601562 25.199219 "/>
</g>
</svg>
